<mxfile host="app.diagrams.net" modified="2023-11-08T09:14:14.203Z" agent="Mozilla/5.0 (Windows NT 10.0; Win64; x64; rv:109.0) Gecko/20100101 Firefox/119.0" etag="tdKEOFfoECUycOOgAdfW" version="22.0.8" type="github">
  <diagram name="Page-1" id="b5b7bab2-c9e2-2cf4-8b2a-24fd1a2a6d21">
    <mxGraphModel dx="1434" dy="746" grid="1" gridSize="10" guides="1" tooltips="1" connect="1" arrows="1" fold="1" page="1" pageScale="1" pageWidth="827" pageHeight="1169" background="none" math="0" shadow="0">
      <root>
        <mxCell id="0" />
        <mxCell id="1" parent="0" />
        <mxCell id="yQ76Dd4Vf3-5NPErQ1-4-2" value="Backend server" style="verticalAlign=top;align=left;spacingTop=8;spacingLeft=2;spacingRight=12;shape=cube;size=10;direction=south;fontStyle=4;html=1;whiteSpace=wrap;" vertex="1" parent="1">
          <mxGeometry width="410" height="450" as="geometry" />
        </mxCell>
        <mxCell id="yQ76Dd4Vf3-5NPErQ1-4-3" value="Scooter" style="verticalAlign=top;align=left;spacingTop=8;spacingLeft=2;spacingRight=12;shape=cube;size=10;direction=south;fontStyle=4;html=1;whiteSpace=wrap;" vertex="1" parent="1">
          <mxGeometry x="527" width="300" height="200" as="geometry" />
        </mxCell>
        <mxCell id="yQ76Dd4Vf3-5NPErQ1-4-4" value="Customers smartphone" style="verticalAlign=top;align=left;spacingTop=8;spacingLeft=2;spacingRight=12;shape=cube;size=10;direction=south;fontStyle=4;html=1;whiteSpace=wrap;" vertex="1" parent="1">
          <mxGeometry x="527" y="240" width="300" height="210" as="geometry" />
        </mxCell>
        <mxCell id="yQ76Dd4Vf3-5NPErQ1-4-6" value="scooter-app" style="verticalAlign=top;align=left;spacingTop=8;spacingLeft=2;spacingRight=12;shape=cube;size=10;direction=south;fontStyle=4;html=1;whiteSpace=wrap;" vertex="1" parent="1">
          <mxGeometry x="560" y="60" width="180" height="120" as="geometry" />
        </mxCell>
        <mxCell id="yQ76Dd4Vf3-5NPErQ1-4-7" value="customer-app" style="verticalAlign=top;align=left;spacingTop=8;spacingLeft=2;spacingRight=12;shape=cube;size=10;direction=south;fontStyle=4;html=1;whiteSpace=wrap;" vertex="1" parent="1">
          <mxGeometry x="560" y="310" width="180" height="120" as="geometry" />
        </mxCell>
        <mxCell id="yQ76Dd4Vf3-5NPErQ1-4-8" value="database-server" style="verticalAlign=top;align=left;spacingTop=8;spacingLeft=2;spacingRight=12;shape=cube;size=10;direction=south;fontStyle=4;html=1;whiteSpace=wrap;" vertex="1" parent="1">
          <mxGeometry x="10" y="60" width="180" height="120" as="geometry" />
        </mxCell>
        <mxCell id="yQ76Dd4Vf3-5NPErQ1-4-9" value="api-server" style="verticalAlign=top;align=left;spacingTop=8;spacingLeft=2;spacingRight=12;shape=cube;size=10;direction=south;fontStyle=4;html=1;whiteSpace=wrap;" vertex="1" parent="1">
          <mxGeometry x="200" y="60" width="180" height="120" as="geometry" />
        </mxCell>
        <mxCell id="yQ76Dd4Vf3-5NPErQ1-4-10" value="ws-server" style="verticalAlign=top;align=left;spacingTop=8;spacingLeft=2;spacingRight=12;shape=cube;size=10;direction=south;fontStyle=4;html=1;whiteSpace=wrap;" vertex="1" parent="1">
          <mxGeometry x="10" y="190" width="180" height="120" as="geometry" />
        </mxCell>
        <mxCell id="yQ76Dd4Vf3-5NPErQ1-4-11" value="admin-webgui" style="verticalAlign=top;align=left;spacingTop=8;spacingLeft=2;spacingRight=12;shape=cube;size=10;direction=south;fontStyle=4;html=1;whiteSpace=wrap;" vertex="1" parent="1">
          <mxGeometry x="200" y="190" width="180" height="120" as="geometry" />
        </mxCell>
        <mxCell id="yQ76Dd4Vf3-5NPErQ1-4-12" value="customer-webgui" style="verticalAlign=top;align=left;spacingTop=8;spacingLeft=2;spacingRight=12;shape=cube;size=10;direction=south;fontStyle=4;html=1;whiteSpace=wrap;" vertex="1" parent="1">
          <mxGeometry x="10" y="320" width="180" height="120" as="geometry" />
        </mxCell>
      </root>
    </mxGraphModel>
  </diagram>
</mxfile>
